<svg id="svg" version="1.1" xmlns="http://www.w3.org/2000/svg" xmlns:xlink="http://www.w3.org/1999/xlink" width="400" height="366.5580890336591" viewBox="0, 0, 400,366.5580890336591"><g id="svgg"><path id="path0" d="M311.274 98.625 C 311.274 98.827,310.719 98.992,310.041 98.992 C 308.464 98.992,299.828 100.743,299.561 101.117 C 299.449 101.272,298.533 101.649,297.525 101.954 C 295.165 102.667,294.993 103.503,296.719 105.873 C 297.414 106.827,298.097 107.979,298.237 108.433 C 298.377 108.886,298.643 109.258,298.828 109.258 C 299.014 109.258,299.392 109.800,299.669 110.464 C 299.946 111.127,300.413 111.911,300.706 112.205 C 300.999 112.500,301.686 113.689,302.234 114.849 C 302.782 116.008,303.351 116.957,303.500 116.957 C 303.649 116.957,304.164 117.947,304.644 119.157 C 305.125 120.367,305.617 121.357,305.738 121.358 C 305.859 121.359,306.258 122.142,306.624 123.099 C 306.991 124.057,307.768 125.830,308.350 127.039 C 308.932 128.249,309.621 129.940,309.881 130.797 C 310.140 131.654,310.465 132.356,310.603 132.356 C 310.740 132.356,311.286 133.717,311.816 135.380 C 312.346 137.044,313.000 138.900,313.269 139.505 C 313.538 140.110,314.066 141.842,314.441 143.355 C 314.817 144.867,315.230 146.154,315.360 146.214 C 315.490 146.274,315.979 148.336,316.446 150.797 C 316.913 153.257,317.408 155.353,317.546 155.454 C 318.966 156.493,320.259 182.664,319.373 192.409 C 318.790 198.810,317.812 206.195,317.517 206.416 C 317.383 206.517,316.886 208.868,316.414 211.641 C 315.941 214.413,315.417 216.682,315.248 216.682 C 315.079 216.682,314.940 217.285,314.940 218.022 L 314.940 219.362 319.960 219.121 C 322.721 218.989,325.072 218.741,325.185 218.570 C 325.297 218.399,326.132 218.150,327.039 218.016 C 329.488 217.654,334.162 216.562,334.372 216.303 C 334.473 216.179,335.999 215.611,337.764 215.042 C 339.528 214.473,340.972 213.900,340.972 213.767 C 340.972 213.635,341.804 213.228,342.821 212.862 C 343.839 212.496,344.875 212.010,345.124 211.781 C 345.773 211.186,347.644 210.072,348.396 209.834 C 348.749 209.722,349.038 209.488,349.038 209.314 C 349.038 209.140,349.706 208.657,350.522 208.240 C 351.338 207.824,352.099 207.243,352.211 206.950 C 352.324 206.656,352.620 206.416,352.870 206.416 C 353.119 206.416,353.622 206.086,353.987 205.683 C 354.352 205.280,354.773 204.950,354.922 204.950 C 355.283 204.950,362.635 197.638,363.217 196.700 C 363.467 196.297,363.840 195.596,364.045 195.142 C 364.250 194.688,364.584 194.317,364.786 194.317 C 364.989 194.317,365.491 193.657,365.903 192.851 C 366.314 192.044,366.774 191.384,366.924 191.384 C 367.074 191.384,367.594 190.518,368.080 189.459 C 368.566 188.401,369.188 187.347,369.463 187.118 C 369.737 186.889,370.295 185.755,370.701 184.598 C 371.108 183.441,371.641 182.294,371.885 182.050 C 372.130 181.805,372.644 180.382,373.027 178.887 C 373.411 177.392,373.854 176.081,374.012 175.975 C 376.505 174.294,376.504 143.204,374.011 141.532 C 373.852 141.426,373.369 140.031,372.939 138.433 C 372.509 136.836,372.003 135.433,371.815 135.317 C 371.627 135.201,371.129 134.126,370.708 132.930 C 370.288 131.733,369.805 130.661,369.636 130.547 C 369.467 130.432,368.846 129.436,368.257 128.332 C 367.668 127.228,366.897 126.032,366.544 125.674 C 366.192 125.316,365.903 124.858,365.903 124.656 C 365.903 124.455,365.614 123.995,365.261 123.636 C 364.908 123.276,364.155 122.303,363.587 121.473 C 363.019 120.643,361.864 119.311,361.021 118.513 C 360.177 117.715,358.560 116.090,357.428 114.901 C 355.315 112.685,353.743 111.407,352.612 110.986 C 352.259 110.855,351.971 110.580,351.971 110.376 C 351.971 110.173,351.326 109.677,350.538 109.275 C 349.750 108.873,349.049 108.416,348.980 108.259 C 348.911 108.102,347.947 107.489,346.838 106.896 C 345.729 106.303,344.631 105.630,344.398 105.399 C 344.165 105.169,343.052 104.690,341.923 104.335 C 340.795 103.980,339.872 103.554,339.872 103.388 C 339.872 103.222,338.676 102.720,337.214 102.274 C 335.752 101.828,334.369 101.315,334.141 101.135 C 333.599 100.708,325.368 98.998,323.831 98.995 C 323.176 98.993,322.640 98.827,322.640 98.625 C 322.640 98.396,320.501 98.258,316.957 98.258 C 313.413 98.258,311.274 98.396,311.274 98.625 " stroke="none" fill="#fb9c54" fill-rule="evenodd"></path><path id="path1" d="M130.889 20.027 C 127.305 20.214,121.564 20.939,121.357 21.230 C 121.256 21.371,119.532 21.851,117.526 22.297 C 115.520 22.742,113.787 23.255,113.675 23.435 C 113.564 23.616,112.813 23.879,112.006 24.019 C 109.483 24.457,106.691 25.335,106.691 25.691 C 106.691 25.878,106.501 26.031,106.268 26.031 C 105.780 26.031,101.832 27.847,101.558 28.198 C 101.457 28.327,100.591 28.840,99.633 29.339 C 98.676 29.838,97.892 30.366,97.892 30.512 C 97.892 30.659,97.419 31.023,96.841 31.322 C 95.724 31.899,94.564 32.807,92.471 34.739 C 91.761 35.394,91.062 35.930,90.917 35.930 C 90.539 35.930,86.167 40.342,85.466 41.430 C 85.142 41.934,84.423 42.732,83.868 43.204 C 83.313 43.676,82.860 44.277,82.860 44.540 C 82.860 44.803,82.620 45.110,82.326 45.222 C 82.033 45.335,81.452 46.095,81.036 46.912 C 80.619 47.728,80.145 48.396,79.982 48.396 C 79.819 48.396,79.299 49.221,78.827 50.229 C 78.355 51.237,77.867 52.062,77.743 52.062 C 77.620 52.062,77.035 53.093,76.445 54.354 C 75.854 55.614,75.255 56.729,75.113 56.832 C 74.970 56.934,74.486 58.089,74.036 59.398 C 73.587 60.707,73.091 61.863,72.934 61.966 C 72.778 62.069,72.301 63.636,71.874 65.449 C 71.447 67.261,70.949 69.016,70.767 69.348 C 68.832 72.876,68.846 99.341,70.784 100.031 C 70.973 100.098,71.129 100.428,71.132 100.764 C 71.139 101.771,72.538 107.160,72.852 107.392 C 73.013 107.511,73.549 108.845,74.045 110.357 C 74.540 111.870,75.055 113.190,75.188 113.291 C 75.322 113.391,75.860 114.325,76.384 115.364 C 76.909 116.404,77.467 117.312,77.624 117.381 C 77.781 117.450,78.293 118.291,78.761 119.248 C 79.229 120.206,79.734 120.990,79.884 120.990 C 80.035 120.990,80.435 121.526,80.773 122.181 C 81.535 123.656,82.113 124.531,82.984 125.532 C 84.543 127.322,92.023 134.818,93.167 135.736 C 95.579 137.674,96.362 138.222,96.719 138.222 C 96.918 138.222,97.161 138.434,97.261 138.693 C 97.360 138.952,98.203 139.555,99.133 140.033 C 100.064 140.512,100.825 141.008,100.825 141.135 C 100.825 141.263,101.732 141.767,102.841 142.255 C 103.951 142.743,104.858 143.253,104.858 143.387 C 104.858 143.522,105.889 144.013,107.149 144.478 C 108.410 144.944,109.535 145.462,109.651 145.631 C 109.766 145.799,111.416 146.349,113.317 146.854 C 115.218 147.358,117.044 147.922,117.376 148.107 C 118.318 148.635,123.780 149.585,127.314 149.836 C 129.079 149.961,130.522 150.204,130.522 150.376 C 130.522 150.547,132.585 150.687,135.105 150.687 C 137.916 150.687,139.688 150.546,139.688 150.321 C 139.688 150.119,140.472 149.954,141.430 149.954 C 143.665 149.954,152.247 148.560,152.507 148.155 C 152.615 147.985,153.281 147.731,153.987 147.590 C 156.290 147.131,160.393 145.782,160.850 145.334 C 161.096 145.094,162.209 144.610,163.325 144.259 C 164.440 143.908,165.353 143.473,165.353 143.292 C 165.353 143.110,166.077 142.652,166.962 142.272 C 167.847 141.893,168.631 141.445,168.704 141.277 C 168.776 141.109,169.776 140.495,170.924 139.913 C 172.073 139.330,173.099 138.629,173.204 138.355 C 173.310 138.080,173.607 137.854,173.866 137.852 C 174.124 137.850,175.160 137.112,176.169 136.212 C 177.177 135.312,178.112 134.571,178.246 134.565 C 178.489 134.556,181.705 131.306,184.244 128.506 C 184.975 127.699,185.973 126.625,186.462 126.119 C 186.951 125.613,187.351 125.000,187.351 124.757 C 187.351 124.514,187.649 124.156,188.014 123.961 C 188.379 123.766,189.064 122.852,189.538 121.931 C 190.012 121.010,190.510 120.257,190.646 120.257 C 190.781 120.257,191.278 119.432,191.751 118.423 C 192.223 117.415,192.720 116.590,192.855 116.590 C 192.990 116.590,193.566 115.435,194.134 114.024 C 194.702 112.612,195.292 111.457,195.445 111.457 C 195.598 111.457,196.090 110.261,196.540 108.799 C 196.989 107.337,197.476 106.059,197.622 105.958 C 197.935 105.742,199.450 99.423,199.450 98.335 C 199.450 97.923,199.600 97.531,199.784 97.464 C 201.150 96.963,201.190 75.799,199.831 72.777 C 199.649 72.374,199.158 70.312,198.739 68.194 C 198.320 66.077,197.814 64.290,197.614 64.222 C 197.414 64.155,197.250 63.912,197.250 63.683 C 197.250 63.014,195.670 58.130,195.389 57.929 C 195.248 57.828,194.683 56.673,194.134 55.362 C 193.584 54.051,193.011 52.896,192.859 52.796 C 192.707 52.695,192.211 51.880,191.757 50.985 C 191.304 50.091,190.699 49.125,190.413 48.839 C 190.127 48.553,189.576 47.697,189.188 46.936 C 188.800 46.176,188.228 45.456,187.917 45.336 C 187.606 45.217,187.351 44.908,187.351 44.650 C 187.351 44.391,186.858 43.685,186.256 43.080 C 185.653 42.475,183.894 40.619,182.345 38.955 C 180.796 37.291,179.370 35.930,179.174 35.930 C 178.979 35.930,178.450 35.559,177.999 35.105 C 176.706 33.806,175.197 32.604,173.605 31.608 C 172.797 31.102,172.053 30.566,171.952 30.416 C 171.852 30.267,171.027 29.764,170.119 29.299 C 169.212 28.834,168.387 28.343,168.286 28.208 C 168.185 28.073,167.113 27.501,165.903 26.936 C 164.693 26.371,163.618 25.782,163.513 25.628 C 163.223 25.198,160.131 24.222,158.241 23.963 C 157.313 23.836,156.554 23.613,156.554 23.467 C 156.554 23.321,154.821 22.818,152.704 22.348 C 150.587 21.878,148.854 21.381,148.854 21.243 C 148.854 20.655,135.791 19.771,130.889 20.027 " stroke="none" fill="#ec54b4" fill-rule="evenodd"></path><path id="path2" d="M247.510 38.628 C 247.892 38.957,250.410 39.156,250.216 38.842 C 250.098 38.652,249.407 38.497,248.680 38.497 C 247.952 38.497,247.426 38.556,247.510 38.628 M241.613 39.557 C 241.613 39.939,241.879 40.354,242.204 40.478 C 242.636 40.644,242.735 40.548,242.571 40.121 C 242.447 39.800,242.346 39.385,242.346 39.200 C 242.346 39.015,242.181 38.863,241.980 38.863 C 241.778 38.863,241.613 39.176,241.613 39.557 M302.567 43.813 C 302.571 44.620,302.646 44.906,302.734 44.450 C 302.822 43.994,302.818 43.334,302.727 42.984 C 302.635 42.633,302.563 43.006,302.567 43.813 M200.657 56.004 C 200.921 57.405,202.012 60.264,202.368 60.491 C 202.531 60.594,203.039 62.246,203.498 64.161 C 203.957 66.077,204.448 67.727,204.588 67.828 C 204.728 67.929,205.035 69.331,205.270 70.944 C 206.573 79.864,206.718 85.415,205.861 93.545 C 205.298 98.884,205.159 99.697,204.580 101.008 C 204.402 101.412,203.897 103.226,203.459 105.041 C 203.020 106.856,202.532 108.424,202.373 108.525 C 202.215 108.626,201.656 109.937,201.131 111.438 C 200.607 112.939,200.047 114.259,199.886 114.371 C 199.726 114.482,199.212 115.481,198.743 116.590 C 198.275 117.699,197.788 118.689,197.663 118.790 C 197.537 118.891,197.104 119.621,196.700 120.413 C 196.297 121.205,195.791 122.030,195.576 122.246 C 195.362 122.463,194.727 123.423,194.167 124.381 C 193.606 125.339,192.998 126.123,192.816 126.123 C 192.633 126.123,192.484 126.316,192.484 126.553 C 192.484 126.789,191.659 127.931,190.651 129.090 C 189.643 130.249,188.818 131.296,188.818 131.416 C 188.818 131.889,180.798 139.377,179.477 140.138 C 179.223 140.284,178.481 140.903,177.828 141.513 C 177.175 142.123,176.419 142.621,176.148 142.621 C 175.877 142.621,175.523 142.847,175.362 143.122 C 175.201 143.397,174.548 143.888,173.912 144.213 C 173.276 144.538,172.533 145.014,172.262 145.271 C 171.569 145.927,164.280 149.514,163.061 149.798 C 162.507 149.928,162.053 150.175,162.053 150.349 C 162.053 150.522,160.610 151.093,158.845 151.619 C 157.081 152.144,155.356 152.723,155.012 152.906 C 154.262 153.306,146.576 154.720,145.154 154.720 C 144.601 154.720,144.085 154.913,144.007 155.148 C 143.903 155.457,141.540 155.576,135.472 155.576 C 129.404 155.576,127.041 155.457,126.938 155.148 C 126.859 154.913,126.334 154.720,125.770 154.720 C 124.178 154.720,116.492 153.316,116.253 152.981 C 116.136 152.817,114.803 152.372,113.291 151.992 C 110.162 151.206,108.891 150.706,108.891 150.262 C 108.891 150.093,108.657 149.954,108.371 149.954 C 107.739 149.954,104.398 148.548,104.132 148.170 C 104.027 148.021,103.034 147.522,101.925 147.060 C 100.816 146.599,99.743 146.030,99.542 145.796 C 99.340 145.563,98.391 144.988,97.434 144.521 C 96.476 144.053,95.692 143.535,95.692 143.371 C 95.692 143.206,95.117 142.799,94.414 142.465 C 93.711 142.131,92.962 141.535,92.751 141.140 C 92.540 140.745,92.139 140.422,91.862 140.422 C 91.585 140.422,90.961 139.951,90.477 139.375 C 89.993 138.800,89.409 138.263,89.181 138.184 C 88.545 137.962,82.436 131.916,81.216 130.301 C 80.622 129.515,79.913 128.643,79.640 128.363 C 79.366 128.082,78.868 127.423,78.533 126.896 C 78.197 126.370,77.631 125.724,77.275 125.460 C 76.919 125.197,76.627 124.767,76.627 124.506 C 76.627 124.244,76.256 123.626,75.802 123.132 C 75.348 122.638,74.578 121.418,74.090 120.420 C 73.602 119.423,73.079 118.523,72.928 118.420 C 72.777 118.317,72.296 117.329,71.861 116.224 C 71.425 115.118,70.958 114.130,70.823 114.027 C 70.553 113.822,69.937 112.259,69.014 109.441 C 68.684 108.433,68.295 107.524,68.150 107.421 C 68.005 107.318,67.779 106.809,67.649 106.291 C 67.519 105.772,67.047 104.949,66.600 104.461 C 66.154 103.974,65.298 102.923,64.700 102.127 C 64.101 101.331,63.240 100.276,62.786 99.782 C 62.333 99.289,61.962 98.667,61.962 98.401 C 61.962 98.135,61.632 97.741,61.228 97.525 C 60.825 97.309,60.495 96.956,60.495 96.741 C 60.495 96.525,60.012 95.633,59.422 94.758 C 54.586 87.593,53.961 80.674,57.978 78.767 C 58.959 78.301,59.762 77.804,59.762 77.663 C 59.762 77.521,60.888 77.294,62.264 77.158 L 64.766 76.911 65.232 73.103 C 65.488 71.008,65.817 69.294,65.962 69.294 C 66.108 69.294,66.443 68.204,66.708 66.871 C 67.222 64.285,67.042 63.813,65.536 63.800 C 65.183 63.797,64.895 63.648,64.895 63.470 C 64.895 63.291,64.441 63.063,63.886 62.964 C 60.864 62.422,56.962 61.474,56.619 61.198 C 56.130 60.803,45.439 59.028,43.551 59.028 C 42.788 59.028,42.163 58.863,42.163 58.662 C 42.163 58.431,39.658 58.295,35.380 58.295 C 31.650 58.295,28.598 58.439,28.598 58.615 C 28.598 58.790,27.761 59.045,26.739 59.181 C 21.523 59.872,16.865 64.232,16.865 68.422 C 16.865 69.104,16.700 69.661,16.499 69.661 C 16.297 69.661,16.132 70.156,16.132 70.761 C 16.132 71.366,16.297 71.861,16.499 71.861 C 16.700 71.861,16.865 72.578,16.865 73.456 C 16.865 74.333,17.016 75.529,17.200 76.114 C 17.383 76.699,17.749 77.961,18.013 78.918 C 18.276 79.876,18.599 80.660,18.729 80.660 C 18.860 80.660,19.418 81.897,19.970 83.410 C 20.521 84.922,21.113 86.159,21.285 86.159 C 21.457 86.159,21.936 86.861,22.351 87.718 C 23.349 89.783,25.602 93.440,26.856 95.032 C 27.411 95.735,27.864 96.462,27.864 96.647 C 27.864 96.831,28.194 97.188,28.598 97.440 C 29.001 97.692,29.331 98.110,29.331 98.369 C 29.331 98.787,29.927 99.550,32.619 102.579 C 33.029 103.040,33.364 103.517,33.364 103.638 C 33.364 103.760,33.983 104.554,34.739 105.402 C 35.495 106.251,36.691 107.645,37.397 108.500 C 41.435 113.393,57.804 130.522,58.441 130.522 C 58.588 130.522,60.321 132.172,62.293 134.189 C 64.265 136.205,66.003 137.855,66.156 137.855 C 66.309 137.855,66.891 138.309,67.451 138.863 C 68.858 140.257,73.102 144.055,75.527 146.089 C 76.636 147.019,78.038 148.270,78.643 148.868 C 79.248 149.466,79.841 149.955,79.961 149.955 C 80.081 149.954,81.018 150.738,82.043 151.696 C 83.902 153.433,85.399 154.703,87.398 156.237 C 87.978 156.683,88.964 157.514,89.588 158.084 C 90.212 158.654,90.826 159.120,90.953 159.120 C 91.080 159.120,91.679 159.574,92.285 160.128 C 92.890 160.683,93.995 161.632,94.739 162.236 C 95.483 162.841,96.482 163.685,96.958 164.110 C 97.433 164.535,98.416 165.250,99.140 165.698 C 99.865 166.146,100.458 166.660,100.458 166.840 C 100.458 167.020,100.912 167.408,101.467 167.703 C 102.021 167.998,103.135 168.824,103.941 169.539 C 104.748 170.254,105.595 170.842,105.824 170.845 C 106.053 170.849,106.510 171.265,106.841 171.769 C 107.171 172.273,107.676 172.686,107.962 172.686 C 108.248 172.686,108.698 172.989,108.962 173.361 C 109.225 173.732,110.142 174.476,110.999 175.015 C 111.856 175.554,112.557 176.157,112.557 176.357 C 112.557 176.556,112.779 176.719,113.050 176.719 C 113.322 176.719,113.842 177.049,114.207 177.452 C 114.572 177.855,115.075 178.185,115.325 178.185 C 115.574 178.185,115.871 178.425,115.983 178.719 C 116.096 179.012,116.836 179.582,117.627 179.986 C 118.419 180.390,119.164 180.975,119.283 181.286 C 119.403 181.597,119.683 181.852,119.906 181.852 C 120.130 181.852,121.277 182.594,122.456 183.501 C 123.636 184.409,124.738 185.151,124.907 185.151 C 125.075 185.151,125.419 185.481,125.671 185.885 C 125.923 186.288,126.336 186.618,126.588 186.618 C 126.840 186.618,127.534 187.071,128.130 187.626 C 129.136 188.563,129.983 189.155,131.199 189.772 C 131.470 189.910,132.208 190.494,132.839 191.070 C 133.470 191.646,134.188 192.117,134.436 192.117 C 134.683 192.117,135.018 192.333,135.179 192.596 C 135.340 192.859,136.091 193.450,136.847 193.909 C 137.603 194.368,138.222 194.895,138.222 195.080 C 138.222 195.266,138.393 195.417,138.603 195.417 C 139.004 195.417,140.806 196.620,142.035 197.709 C 142.434 198.061,142.952 198.350,143.187 198.350 C 143.422 198.350,144.018 198.721,144.512 199.175 C 145.006 199.629,145.830 200.221,146.343 200.490 C 146.857 200.760,147.755 201.395,148.340 201.901 C 148.925 202.406,150.023 203.138,150.779 203.526 C 151.535 203.914,152.154 204.374,152.154 204.548 C 152.154 204.722,152.443 204.956,152.796 205.068 C 153.682 205.349,155.383 206.437,156.478 207.424 C 156.982 207.878,157.586 208.249,157.821 208.249 C 158.056 208.249,158.568 208.543,158.959 208.903 C 159.350 209.262,160.330 209.957,161.137 210.447 C 161.943 210.937,162.817 211.547,163.079 211.801 C 163.340 212.056,164.124 212.535,164.820 212.865 C 165.516 213.195,166.086 213.600,166.086 213.764 C 166.086 213.928,166.994 214.492,168.103 215.016 C 169.212 215.541,170.119 216.114,170.119 216.290 C 170.119 216.466,170.601 216.778,171.190 216.983 C 171.779 217.189,172.564 217.660,172.934 218.031 C 173.305 218.401,174.556 219.184,175.714 219.770 C 176.871 220.356,177.819 220.961,177.819 221.116 C 177.819 221.270,178.602 221.779,179.560 222.247 C 180.518 222.715,181.418 223.275,181.559 223.493 C 181.701 223.710,182.485 224.189,183.301 224.557 C 184.117 224.925,184.785 225.347,184.785 225.494 C 184.785 225.642,185.073 225.860,185.426 225.978 C 186.316 226.278,188.530 227.589,188.788 227.969 C 188.905 228.141,189.991 228.828,191.201 229.494 C 192.411 230.161,194.143 231.115,195.050 231.614 C 195.958 232.114,196.783 232.641,196.884 232.785 C 196.984 232.930,197.840 233.417,198.785 233.869 C 199.730 234.320,200.555 234.824,200.618 234.988 C 200.681 235.153,201.558 235.734,202.566 236.280 C 207.396 238.896,208.438 239.489,208.612 239.717 C 208.715 239.852,209.624 240.372,210.632 240.871 C 211.641 241.370,212.548 241.879,212.649 242.001 C 212.750 242.124,213.822 242.686,215.032 243.250 C 216.242 243.814,217.354 244.484,217.504 244.739 C 217.653 244.995,218.602 245.501,219.612 245.864 C 220.622 246.227,221.448 246.666,221.448 246.839 C 221.448 247.012,222.232 247.498,223.190 247.919 C 224.148 248.339,225.014 248.785,225.115 248.910 C 225.215 249.035,226.193 249.548,227.287 250.050 C 228.381 250.552,229.454 251.128,229.670 251.330 C 229.887 251.533,230.930 252.097,231.989 252.585 C 233.048 253.072,233.914 253.581,233.914 253.717 C 233.914 253.852,235.069 254.427,236.480 254.995 C 237.892 255.564,239.047 256.129,239.047 256.252 C 239.047 256.374,240.037 256.868,241.247 257.348 C 242.456 257.829,243.446 258.336,243.446 258.475 C 243.446 258.615,244.601 259.193,246.013 259.762 C 247.424 260.330,248.579 260.895,248.579 261.018 C 248.579 261.141,249.569 261.634,250.779 262.115 C 251.989 262.595,252.979 263.108,252.979 263.255 C 252.979 263.402,253.969 263.892,255.179 264.345 C 256.389 264.797,257.379 265.301,257.379 265.465 C 257.379 265.628,257.750 265.867,258.203 265.995 C 259.971 266.494,262.878 267.743,262.878 268.003 C 262.878 268.154,263.791 268.564,264.906 268.915 C 266.022 269.266,267.135 269.744,267.381 269.978 C 267.916 270.487,269.433 271.179,271.677 271.939 C 272.585 272.246,273.410 272.618,273.511 272.766 C 273.611 272.914,274.765 273.403,276.074 273.853 C 277.383 274.303,278.538 274.798,278.640 274.953 C 278.743 275.108,279.898 275.603,281.207 276.053 C 282.516 276.503,283.671 276.981,283.773 277.115 C 283.978 277.385,285.543 278.002,288.359 278.924 C 289.368 279.254,290.287 279.659,290.402 279.824 C 290.517 279.989,291.743 280.448,293.126 280.843 C 294.508 281.239,295.734 281.703,295.849 281.874 C 295.964 282.046,297.791 282.654,299.908 283.226 C 302.026 283.798,303.841 284.375,303.941 284.508 C 304.151 284.784,307.213 285.783,308.983 286.152 C 309.638 286.289,310.174 286.523,310.174 286.672 C 310.174 286.822,311.865 287.338,313.932 287.819 C 315.999 288.300,317.778 288.817,317.884 288.968 C 318.124 289.305,327.072 291.109,328.505 291.109 C 329.077 291.109,329.600 291.265,329.667 291.455 C 330.258 293.127,353.180 293.144,353.743 291.472 C 353.810 291.272,354.055 291.109,354.287 291.109 C 354.959 291.109,358.570 289.190,358.570 288.833 C 358.570 288.655,358.977 288.103,359.473 287.606 C 361.800 285.279,362.217 273.634,360.031 272.044 C 359.892 271.943,359.410 270.745,358.959 269.380 C 358.509 268.016,357.945 266.696,357.707 266.447 C 357.469 266.198,356.955 265.252,356.566 264.345 C 356.177 263.437,355.561 262.400,355.198 262.039 C 354.834 261.678,354.537 261.166,354.537 260.901 C 354.537 260.636,354.126 259.975,353.624 259.433 C 353.121 258.891,352.278 257.671,351.751 256.721 C 351.223 255.772,350.562 254.863,350.281 254.702 C 350.000 254.541,349.771 254.209,349.771 253.965 C 349.771 253.721,349.400 253.111,348.946 252.609 C 347.906 251.457,346.104 249.053,346.104 248.815 C 346.104 248.717,345.651 248.151,345.096 247.559 C 344.074 246.468,343.425 245.712,340.788 242.540 C 338.436 239.711,334.955 235.992,328.849 229.786 C 322.944 223.782,322.189 223.315,321.800 225.414 C 321.431 227.407,320.280 230.812,319.817 231.282 C 319.096 232.014,319.238 233.467,320.073 233.914 C 320.477 234.130,320.807 234.536,320.807 234.817 C 320.807 235.097,321.178 235.634,321.632 236.010 C 322.085 236.386,322.621 236.961,322.823 237.287 C 323.363 238.162,326.585 242.441,327.185 243.080 C 327.469 243.382,327.995 244.248,328.355 245.005 C 328.714 245.761,329.124 246.379,329.266 246.379 C 329.407 246.379,329.988 247.493,330.556 248.854 C 331.124 250.215,331.790 251.659,332.035 252.062 C 334.840 256.668,331.524 262.878,326.260 262.878 C 325.680 262.878,325.206 263.043,325.206 263.245 C 325.206 263.448,324.229 263.611,323.006 263.611 C 321.797 263.611,320.807 263.471,320.807 263.299 C 320.807 263.127,319.514 262.887,317.935 262.765 C 314.820 262.525,307.171 261.094,306.874 260.696 C 306.774 260.561,305.206 260.065,303.391 259.595 C 301.577 259.124,300.009 258.628,299.908 258.493 C 299.808 258.357,298.364 257.863,296.700 257.395 C 293.447 256.479,293.174 256.144,294.592 254.812 C 295.096 254.338,295.509 253.763,295.509 253.534 C 295.509 253.305,295.797 252.789,296.150 252.388 C 296.753 251.703,297.029 251.269,298.167 249.221 C 298.419 248.767,298.721 248.313,298.838 248.213 C 298.955 248.112,299.450 247.204,299.938 246.196 C 300.425 245.188,300.935 244.279,301.071 244.176 C 301.424 243.908,303.208 240.295,303.208 239.849 C 303.208 239.643,303.349 239.419,303.520 239.352 C 303.946 239.186,306.615 233.465,307.425 230.981 C 307.786 229.872,308.192 228.882,308.326 228.781 C 308.599 228.574,310.174 223.672,310.174 223.027 C 310.174 222.797,310.333 222.554,310.528 222.487 C 310.723 222.420,311.335 220.550,311.889 218.332 C 312.443 216.114,313.012 214.216,313.152 214.114 C 313.293 214.013,313.791 211.620,314.260 208.798 C 314.728 205.976,315.210 203.584,315.330 203.483 C 317.042 202.046,317.069 162.233,315.359 160.953 C 315.224 160.853,314.744 158.552,314.293 155.841 C 313.841 153.131,313.345 150.821,313.190 150.708 C 313.035 150.596,312.441 148.566,311.871 146.196 C 311.301 143.827,310.686 141.888,310.505 141.888 C 310.323 141.888,310.174 141.687,310.174 141.440 C 310.174 140.773,308.607 135.868,308.326 135.655 C 308.192 135.555,307.714 134.356,307.264 132.992 C 306.813 131.628,306.211 130.278,305.926 129.993 C 305.641 129.708,305.408 129.312,305.408 129.112 C 305.408 128.617,303.957 125.267,303.639 125.030 C 303.499 124.925,302.973 123.944,302.471 122.850 C 301.969 121.756,301.393 120.684,301.192 120.467 C 300.990 120.251,300.426 119.248,299.938 118.240 C 299.450 117.232,298.937 116.324,298.797 116.224 C 298.658 116.123,298.251 115.463,297.893 114.757 C 297.535 114.051,296.769 112.873,296.192 112.138 C 295.614 111.403,295.142 110.637,295.142 110.435 C 295.142 110.233,294.732 109.679,294.232 109.204 C 293.731 108.730,293.319 108.174,293.315 107.971 C 293.312 107.767,292.938 107.189,292.484 106.687 C 291.480 105.577,289.643 103.135,289.643 102.912 C 289.643 102.696,288.025 100.849,285.885 98.621 C 284.927 97.624,284.143 96.698,284.143 96.563 C 284.143 96.259,275.834 88.097,272.993 85.610 C 271.841 84.601,270.401 83.323,269.793 82.768 C 269.185 82.214,268.600 81.760,268.493 81.760 C 268.386 81.760,267.262 80.935,265.995 79.927 C 264.727 78.918,263.549 78.091,263.376 78.087 C 263.203 78.084,262.673 77.671,262.198 77.171 C 261.723 76.670,261.136 76.260,260.892 76.260 C 260.649 76.260,260.098 75.932,259.668 75.532 C 259.238 75.131,258.217 74.455,257.399 74.028 C 256.581 73.602,255.912 73.140,255.912 73.003 C 255.912 72.865,254.881 72.269,253.621 71.678 C 252.360 71.088,251.247 70.493,251.146 70.357 C 251.045 70.221,250.378 69.867,249.665 69.570 C 248.951 69.273,248.126 68.797,247.831 68.514 C 247.277 67.979,245.367 67.110,242.988 66.310 C 242.232 66.055,241.613 65.735,241.613 65.599 C 241.613 65.462,240.582 64.970,239.322 64.504 C 238.061 64.039,236.948 63.548,236.847 63.413 C 236.746 63.278,235.426 62.793,233.914 62.333 C 232.401 61.874,230.987 61.359,230.770 61.189 C 230.553 61.018,228.573 60.445,226.370 59.914 C 224.167 59.384,222.282 58.831,222.181 58.685 C 221.983 58.398,214.571 56.829,213.413 56.829 C 213.027 56.829,212.655 56.674,212.588 56.486 C 212.473 56.164,203.802 54.997,201.517 54.996 C 200.570 54.995,200.485 55.094,200.657 56.004 M293.492 82.126 C 293.368 82.328,293.605 82.493,294.021 82.493 C 294.436 82.493,294.775 82.328,294.775 82.126 C 294.775 81.925,294.538 81.760,294.247 81.760 C 293.957 81.760,293.617 81.925,293.492 82.126 M291.503 84.110 C 291.267 84.395,291.213 84.714,291.385 84.820 C 291.556 84.926,291.895 84.693,292.139 84.303 C 292.648 83.487,292.146 83.335,291.503 84.110 M295.967 86.423 C 295.337 86.649,295.388 87.259,296.037 87.259 C 296.644 87.259,297.125 86.655,296.706 86.418 C 296.552 86.330,296.219 86.332,295.967 86.423 M67.866 176.016 C 67.383 176.210,67.060 176.440,67.149 176.529 C 67.413 176.792,68.928 176.293,68.928 175.943 C 68.928 175.764,68.886 175.629,68.836 175.642 C 68.786 175.655,68.349 175.823,67.866 176.016 M64.895 183.318 C 64.895 183.520,65.225 183.685,65.628 183.685 C 66.031 183.685,66.361 183.520,66.361 183.318 C 66.361 183.116,66.031 182.951,65.628 182.951 C 65.225 182.951,64.895 183.116,64.895 183.318 M67.509 285.390 C 66.853 285.875,66.466 286.364,66.649 286.477 C 66.832 286.591,67.451 286.194,68.023 285.596 C 69.284 284.280,69.109 284.210,67.509 285.390 M63.061 290.077 C 61.560 291.742,61.270 292.576,62.191 292.576 C 62.698 292.576,62.744 292.478,62.400 292.134 C 62.056 291.790,62.257 291.388,63.311 290.308 C 64.055 289.546,64.592 288.862,64.504 288.789 C 64.416 288.715,63.767 289.295,63.061 290.077 M101.371 296.507 C 100.679 297.045,100.678 297.061,101.346 296.829 C 101.762 296.684,102.172 296.776,102.348 297.054 C 102.570 297.404,102.648 297.366,102.652 296.905 C 102.661 296.004,102.202 295.861,101.371 296.507 M103.837 300.402 C 104.298 300.875,104.739 301.096,104.817 300.892 C 104.895 300.689,104.657 300.302,104.288 300.032 C 103.206 299.241,102.928 299.469,103.837 300.402 M95.914 301.955 C 95.777 302.313,95.859 302.480,96.127 302.391 C 96.675 302.208,96.977 301.375,96.495 301.375 C 96.298 301.375,96.037 301.636,95.914 301.955 M187.718 322.090 C 187.718 322.392,187.883 322.640,188.084 322.640 C 188.286 322.640,188.451 322.392,188.451 322.090 C 188.451 321.787,188.286 321.540,188.084 321.540 C 187.883 321.540,187.718 321.787,187.718 322.090 M193.951 325.799 C 193.951 326.239,195.346 327.609,195.555 327.373 C 195.628 327.290,195.297 326.814,194.819 326.314 C 194.342 325.814,193.951 325.582,193.951 325.799 M185.189 326.275 C 184.527 326.694,184.940 327.773,185.763 327.773 C 186.232 327.773,186.290 327.665,185.986 327.361 C 185.760 327.135,185.662 326.723,185.769 326.445 C 185.994 325.859,185.893 325.829,185.189 326.275 M63.805 326.658 C 63.509 326.846,63.356 327.089,63.465 327.199 C 63.575 327.309,63.983 327.158,64.371 326.864 C 65.144 326.279,64.675 326.109,63.805 326.658 M63.061 328.179 C 63.061 328.404,62.794 328.482,62.460 328.353 C 61.961 328.162,61.936 328.216,62.313 328.671 C 62.703 329.141,62.841 329.146,63.281 328.705 C 63.886 328.101,63.937 327.773,63.428 327.773 C 63.226 327.773,63.061 327.955,63.061 328.179 M192.851 328.873 C 192.851 329.074,193.355 329.239,193.972 329.239 C 194.626 329.239,194.999 329.086,194.867 328.873 C 194.742 328.671,194.238 328.506,193.746 328.506 C 193.253 328.506,192.851 328.671,192.851 328.873 M241.247 347.532 C 241.247 347.712,241.508 347.959,241.827 348.082 C 242.723 348.426,242.842 348.351,242.346 347.754 C 241.841 347.145,241.247 347.025,241.247 347.532 M238.680 351.971 C 238.680 352.172,238.928 352.337,239.230 352.337 C 239.533 352.337,239.780 352.172,239.780 351.971 C 239.780 351.769,239.533 351.604,239.230 351.604 C 238.928 351.604,238.680 351.769,238.680 351.971 " stroke="none" fill="#8c5cd4" fill-rule="evenodd"></path><path id="path3" d="M75.925 208.280 C 74.631 208.448,73.477 208.736,73.359 208.921 C 73.240 209.106,72.566 209.378,71.861 209.526 C 70.387 209.836,67.980 211.069,67.019 212.007 C 66.657 212.360,66.198 212.649,65.999 212.649 C 65.800 212.649,65.198 213.350,64.661 214.207 C 64.124 215.064,63.503 215.883,63.282 216.027 C 62.771 216.359,62.787 220.314,63.300 220.649 C 63.510 220.786,63.797 221.393,63.938 221.998 C 64.510 224.449,65.804 228.258,66.203 228.665 C 66.436 228.904,66.908 229.958,67.252 231.007 C 67.595 232.056,68.090 233.128,68.351 233.390 C 68.613 233.652,69.113 234.743,69.461 235.815 C 69.809 236.887,70.313 238.011,70.580 238.313 C 70.847 238.616,71.351 239.606,71.699 240.513 C 72.047 241.421,72.554 242.345,72.826 242.567 C 73.097 242.790,73.564 243.557,73.863 244.272 C 74.162 244.988,74.622 245.796,74.884 246.068 C 75.147 246.340,75.853 247.511,76.453 248.670 C 77.053 249.829,77.651 250.778,77.781 250.778 C 77.912 250.779,78.384 251.480,78.830 252.337 C 79.276 253.194,79.763 253.978,79.912 254.079 C 80.061 254.180,80.598 254.923,81.103 255.731 C 82.100 257.323,83.301 258.832,84.601 260.125 C 85.055 260.576,85.426 261.121,85.426 261.335 C 85.426 261.550,85.808 262.026,86.274 262.393 C 86.740 262.761,87.277 263.328,87.466 263.653 C 88.896 266.114,101.539 278.787,103.114 279.338 C 103.342 279.418,103.925 279.954,104.409 280.530 C 104.893 281.106,105.458 281.577,105.663 281.577 C 105.868 281.577,106.360 281.989,106.757 282.493 C 107.153 282.997,107.699 283.410,107.970 283.410 C 108.241 283.410,108.929 283.905,109.500 284.510 C 110.071 285.115,110.736 285.610,110.977 285.610 C 111.218 285.610,111.633 285.898,111.899 286.251 C 112.165 286.604,112.793 287.125,113.295 287.408 C 115.329 288.558,115.631 288.759,116.512 289.551 C 117.017 290.005,117.654 290.376,117.927 290.376 C 118.200 290.376,118.716 290.665,119.073 291.017 C 119.430 291.370,120.585 292.058,121.639 292.547 C 122.694 293.035,123.556 293.535,123.556 293.658 C 123.556 293.781,124.629 294.360,125.940 294.945 C 127.250 295.529,128.323 296.123,128.323 296.263 C 128.323 296.404,129.313 296.889,130.522 297.342 C 131.732 297.794,132.722 298.278,132.722 298.418 C 132.722 298.557,134.207 299.145,136.022 299.725 C 137.837 300.305,139.322 300.889,139.322 301.024 C 139.322 301.158,140.559 301.635,142.071 302.084 C 143.584 302.533,144.821 303.021,144.821 303.167 C 144.821 303.313,146.347 303.817,148.213 304.287 C 150.078 304.756,151.687 305.260,151.787 305.406 C 151.986 305.693,158.465 307.045,161.595 307.452 C 162.654 307.590,163.520 307.815,163.520 307.952 C 163.520 308.639,177.930 309.789,186.618 309.796 C 195.657 309.803,210.449 308.668,210.449 307.967 C 210.449 307.824,211.233 307.604,212.191 307.478 C 215.208 307.081,221.990 305.666,222.181 305.394 C 222.282 305.251,223.757 304.783,225.460 304.354 C 227.162 303.925,228.647 303.430,228.759 303.252 C 228.872 303.075,230.189 302.585,231.686 302.163 C 233.183 301.741,234.503 301.265,234.619 301.106 C 234.832 300.814,238.890 299.285,240.422 298.920 C 240.875 298.811,241.247 298.597,241.247 298.444 C 241.247 298.290,242.236 297.794,243.446 297.342 C 244.656 296.889,245.646 296.410,245.646 296.277 C 245.646 296.144,246.719 295.557,248.029 294.973 C 249.340 294.388,250.412 293.806,250.412 293.679 C 250.412 293.553,251.318 293.046,252.425 292.554 C 253.532 292.062,254.440 291.527,254.442 291.366 C 254.447 290.987,252.540 289.308,252.062 289.271 C 251.861 289.255,251.201 288.596,250.596 287.807 C 249.991 287.019,249.248 286.283,248.946 286.174 C 248.643 286.064,247.571 285.237,246.563 284.335 C 245.555 283.434,244.529 282.692,244.284 282.686 C 244.039 282.681,243.662 282.346,243.446 281.943 C 243.231 281.540,242.854 281.207,242.609 281.203 C 242.364 281.199,241.505 280.622,240.701 279.920 C 239.897 279.218,238.701 278.389,238.043 278.077 C 237.385 277.765,236.847 277.382,236.847 277.227 C 236.847 277.072,236.187 276.574,235.380 276.121 C 234.574 275.668,233.914 275.142,233.914 274.954 C 233.914 274.765,233.731 274.610,233.508 274.610 C 233.285 274.610,232.485 274.121,231.729 273.523 C 230.974 272.924,229.506 272.008,228.468 271.487 C 227.430 270.965,226.581 270.423,226.581 270.281 C 226.581 270.139,225.756 269.645,224.748 269.182 C 223.740 268.720,222.915 268.212,222.915 268.054 C 222.915 267.896,221.966 267.285,220.807 266.697 C 219.647 266.109,218.642 265.500,218.573 265.343 C 218.504 265.186,217.762 264.711,216.923 264.286 C 216.085 263.861,215.316 263.398,215.215 263.258 C 215.115 263.117,214.207 262.603,213.199 262.115 C 212.191 261.627,211.147 261.021,210.879 260.768 C 210.612 260.515,209.581 259.958,208.588 259.531 C 207.595 259.104,206.783 258.640,206.783 258.499 C 206.783 258.358,205.958 257.870,204.950 257.414 C 203.941 256.958,203.116 256.470,203.116 256.329 C 203.116 256.189,202.278 255.748,201.254 255.351 C 200.230 254.954,199.116 254.373,198.779 254.059 C 198.442 253.746,197.218 253.097,196.059 252.617 C 194.899 252.137,193.951 251.627,193.951 251.485 C 193.951 251.342,192.878 250.759,191.567 250.188 C 190.257 249.617,189.184 249.041,189.184 248.909 C 189.184 248.777,188.194 248.298,186.984 247.846 C 185.775 247.394,184.785 246.903,184.785 246.757 C 184.785 246.610,183.795 246.097,182.585 245.616 C 181.375 245.135,180.385 244.642,180.385 244.519 C 180.385 244.397,179.230 243.831,177.819 243.263 C 176.407 242.695,175.252 242.110,175.252 241.964 C 175.252 241.818,174.303 241.318,173.144 240.854 C 171.984 240.389,170.953 239.898,170.852 239.763 C 170.587 239.408,167.179 237.947,166.616 237.947 C 166.353 237.947,165.921 237.731,165.654 237.467 C 165.388 237.203,164.180 236.586,162.970 236.096 C 161.760 235.605,160.687 235.111,160.587 234.998 C 160.486 234.885,159.496 234.409,158.387 233.940 C 157.278 233.472,156.288 232.971,156.187 232.827 C 156.086 232.684,154.766 232.100,153.254 231.531 C 151.742 230.961,150.422 230.380,150.321 230.239 C 150.220 230.099,149.065 229.607,147.754 229.148 C 146.444 228.688,145.287 228.183,145.184 228.025 C 144.998 227.740,142.793 226.866,140.513 226.175 C 139.858 225.976,139.322 225.684,139.322 225.526 C 139.322 225.368,138.126 224.843,136.664 224.360 C 135.202 223.877,133.827 223.313,133.609 223.107 C 133.392 222.900,132.237 222.408,131.043 222.012 C 129.849 221.617,128.790 221.184,128.689 221.052 C 128.588 220.919,127.021 220.343,125.206 219.771 C 123.391 219.200,121.855 218.611,121.792 218.464 C 121.729 218.316,120.492 217.831,119.042 217.385 C 117.593 216.940,116.324 216.455,116.224 216.309 C 116.123 216.163,114.555 215.584,112.741 215.024 C 110.926 214.464,109.358 213.896,109.258 213.763 C 109.157 213.630,107.589 213.136,105.775 212.665 C 103.960 212.194,102.392 211.699,102.291 211.563 C 102.072 211.269,92.919 209.337,91.781 209.344 C 91.344 209.347,90.932 209.197,90.865 209.010 C 90.552 208.144,80.696 207.662,75.925 208.280 " stroke="none" fill="#5c4cbc" fill-rule="evenodd"></path><path id="path4" d="M245.280 37.580 C 244.905 38.714,244.710 38.863,243.601 38.863 C 242.133 38.863,241.992 39.413,243.098 40.820 C 243.680 41.560,243.795 42.069,243.607 43.069 C 243.379 44.289,243.825 44.867,244.346 44.025 C 244.755 43.363,246.598 43.230,247.669 43.785 C 248.983 44.467,248.978 44.474,248.570 42.703 C 248.292 41.494,248.342 41.171,248.866 40.801 C 250.708 39.498,250.637 38.882,248.645 38.869 C 247.832 38.864,246.758 38.113,246.686 37.502 C 246.504 35.936,245.809 35.975,245.280 37.580 M300.717 41.808 C 299.172 43.353,298.224 43.372,296.674 41.892 C 296.125 41.368,295.142 41.271,295.142 41.742 C 295.142 42.493,295.981 44.363,296.317 44.363 C 296.521 44.363,296.596 44.600,296.485 44.889 C 296.374 45.179,296.455 45.473,296.665 45.543 C 296.875 45.613,296.288 46.369,295.361 47.224 C 293.230 49.189,293.247 49.281,295.692 48.993 C 297.698 48.757,299.173 49.202,299.176 50.042 C 299.180 51.122,300.681 52.853,301.223 52.402 C 301.667 52.034,301.682 51.883,301.301 51.636 C 300.915 51.387,300.921 51.267,301.333 51.001 C 301.638 50.805,301.771 50.304,301.665 49.750 C 301.459 48.668,302.172 48.200,304.583 47.835 C 306.833 47.493,306.694 46.540,304.266 45.667 L 302.392 44.993 302.631 42.875 C 302.936 40.182,302.555 39.969,300.717 41.808 M293.309 82.893 C 293.309 83.112,292.938 83.607,292.484 83.992 C 291.708 84.651,291.697 84.722,292.301 85.191 C 292.654 85.466,292.942 85.943,292.942 86.252 C 292.942 86.561,293.190 86.909,293.492 87.025 C 293.795 87.141,294.042 87.077,294.042 86.881 C 294.042 86.686,294.555 86.526,295.182 86.526 C 296.217 86.526,296.300 86.441,296.089 85.601 C 295.927 84.953,296.025 84.613,296.416 84.462 C 297.298 84.124,297.083 83.782,295.569 83.114 C 293.938 82.394,293.309 82.332,293.309 82.893 M64.161 176.740 C 64.161 177.883,64.021 178.508,63.795 178.368 C 63.593 178.244,63.428 178.297,63.428 178.487 C 63.428 178.677,63.098 178.919,62.695 179.025 C 61.582 179.316,61.817 179.929,63.153 180.219 C 64.496 180.510,64.881 180.932,64.889 182.126 C 64.897 183.354,66.182 183.184,66.969 181.852 C 67.614 180.761,68.194 180.413,68.194 181.118 C 68.194 181.320,68.689 181.485,69.294 181.485 C 70.743 181.485,70.719 180.724,69.230 179.471 C 68.494 178.851,68.216 178.398,68.474 178.239 C 68.991 177.919,69.752 175.954,69.468 175.670 C 69.350 175.553,69.126 175.664,68.970 175.917 C 68.351 176.918,66.177 176.869,65.503 175.839 C 64.565 174.408,64.161 174.679,64.161 176.740 M68.250 285.368 L 67.063 286.594 65.367 285.735 C 63.352 284.715,62.361 284.582,63.061 285.426 C 63.312 285.729,63.374 285.979,63.198 285.982 C 63.022 285.985,63.043 286.109,63.245 286.257 C 64.547 287.214,64.543 289.046,63.235 290.386 C 62.526 291.111,62.060 291.819,62.198 291.957 C 62.586 292.345,64.823 292.255,65.078 291.842 C 65.523 291.122,65.954 291.504,66.916 293.469 C 68.114 295.917,68.759 295.811,69.097 293.111 L 69.345 291.128 71.146 290.889 C 72.857 290.662,74.549 289.643,73.215 289.643 C 72.902 289.643,72.421 289.417,72.145 289.141 C 71.869 288.865,71.265 288.519,70.803 288.373 C 70.042 288.131,69.975 287.921,70.087 286.124 C 70.233 283.790,69.909 283.657,68.250 285.368 M100.651 297.182 C 99.598 297.731,99.177 297.728,97.800 297.161 C 97.076 296.863,96.886 298.176,97.510 299.163 C 97.708 299.476,97.714 299.864,97.525 300.091 C 97.347 300.306,97.030 300.932,96.821 301.482 L 96.441 302.481 97.850 302.256 C 99.176 302.044,99.283 302.097,99.657 303.169 C 100.140 304.555,101.795 304.887,101.439 303.527 C 101.157 302.446,102.723 301.122,104.033 301.333 C 104.814 301.459,104.535 300.864,103.388 299.959 C 102.557 299.302,102.291 298.792,102.291 297.851 C 102.291 296.442,102.167 296.391,100.651 297.182 M188.084 321.173 C 187.718 321.410,187.687 321.531,187.993 321.534 C 189.176 321.549,188.515 324.689,187.177 325.410 C 185.022 326.571,185.253 327.600,187.719 327.834 C 188.993 327.955,189.003 327.969,189.327 330.247 C 189.614 332.262,190.284 333.482,190.284 331.989 C 190.284 331.687,190.459 331.439,190.672 331.439 C 190.886 331.439,190.959 331.274,190.834 331.072 C 190.709 330.871,190.762 330.706,190.951 330.706 C 191.140 330.706,191.500 330.211,191.751 329.606 C 192.220 328.473,194.316 327.980,194.867 328.873 C 195.206 329.421,195.676 329.316,195.938 328.633 C 196.096 328.222,195.784 327.704,194.971 327.024 L 193.770 326.023 194.470 323.963 C 195.109 322.084,195.041 320.735,194.363 321.832 C 193.522 323.194,190.339 323.012,189.560 321.557 C 189.111 320.718,188.881 320.658,188.084 321.173 M62.491 323.039 C 62.342 323.280,61.751 323.346,61.003 323.206 C 59.710 322.964,59.619 323.074,60.109 324.290 C 60.271 324.693,60.280 325.188,60.128 325.390 C 59.249 326.555,59.343 327.406,60.350 327.406 C 60.902 327.406,61.648 327.673,62.008 327.998 C 62.732 328.653,63.822 328.037,63.523 327.141 C 63.442 326.898,63.800 326.593,64.319 326.463 C 65.353 326.204,65.579 325.406,64.711 325.074 C 64.390 324.950,64.161 324.401,64.161 323.751 C 64.161 322.607,63.051 322.133,62.491 323.039 M241.094 349.496 C 240.749 351.780,240.399 352.154,238.608 352.154 C 236.504 352.154,236.306 353.056,238.208 353.981 C 239.556 354.636,240.183 356.823,239.281 357.725 C 238.965 358.041,238.982 359.303,239.302 359.303 C 239.644 359.303,242.459 357.386,242.799 356.921 C 242.973 356.684,243.071 356.699,243.074 356.962 C 243.080 357.377,246.294 358.778,246.581 358.491 C 246.810 358.262,245.558 355.135,245.110 354.818 C 244.852 354.635,244.851 354.547,245.107 354.543 C 245.698 354.534,248.231 351.931,248.005 351.565 C 247.894 351.385,246.859 351.237,245.705 351.237 C 243.653 351.237,242.746 350.482,242.772 348.793 C 242.776 348.546,241.931 347.952,241.563 347.943 C 241.435 347.940,241.224 348.639,241.094 349.496 " stroke="none" fill="#f1f1f1" fill-rule="evenodd"></path></g></svg>